<svg width="1920" height="1080" viewBox="0 0 1920 1080" fill="none" xmlns="http://www.w3.org/2000/svg">
<g clip-path="url(#clip0_643_5593)">
<rect width="1920" height="1080" fill="#1A75EC"/>
<rect width="1920" height="1080" fill="#1A75EC"/>
<g style="mix-blend-mode:luminosity" opacity="0.25">
<path d="M1568.18 405.497C1481.19 405.526 1396.17 431.35 1323.86 479.703C1251.55 528.055 1195.2 596.765 1161.93 677.146C1128.66 757.526 1119.98 845.967 1136.96 931.286C1153.95 1016.6 1195.85 1094.97 1257.37 1156.47C1318.89 1217.98 1397.26 1259.86 1482.57 1276.82C1567.89 1293.78 1656.32 1285.06 1736.68 1251.76C1817.04 1218.46 1885.72 1162.08 1934.04 1089.75C1982.37 1017.41 2008.16 932.372 2008.16 845.378C2007.99 728.739 1961.58 616.926 1879.1 534.464C1796.62 452.001 1684.8 405.621 1568.18 405.497V405.497ZM1314.95 1098.61L1249.87 1033.64L1380.24 903.354L1666.6 1189.87C1605.17 1207.42 1540.17 1208.21 1478.34 1192.17C1416.51 1176.12 1360.09 1143.81 1314.95 1098.61ZM1821.5 1098.61C1799.51 1120.66 1774.75 1139.77 1747.84 1155.45L1258.32 665.818C1273.88 638.882 1292.92 614.113 1314.95 592.15C1336.95 570.14 1361.72 551.091 1388.64 535.484L1878.04 1025.16C1862.42 1051.99 1843.38 1076.68 1821.4 1098.61H1821.5ZM1756.32 787.527L1469.83 501.011C1531.24 483.464 1596.23 482.669 1658.05 498.708C1719.86 514.747 1776.27 547.035 1821.4 592.224L1886.56 657.391L1756.32 787.527Z" fill="white"/>
</g>
</g>
<defs>
<clipPath id="clip0_643_5593">
<rect width="1920" height="1080" fill="white"/>
</clipPath>
</defs>
</svg>
