<svg width="267" height="209" viewBox="0 0 267 209" fill="none" xmlns="http://www.w3.org/2000/svg">
<path d="M15.8213 57.2145C24.1018 34.8174 46.5558 18.749 70.3552 24.282C92.7334 29.4928 108.84 49.313 130.195 57.2524C152.592 65.5708 172.014 59.6778 192.194 49.8057C209.589 41.2788 230.376 34.4573 244.909 53.1217C260.655 73.3587 258.552 104.34 250.802 126.85C243.147 149.039 228.102 167.362 208.623 179.243C169.816 202.929 115.055 204.881 73.8986 182.881C31.3401 160.143 -2.21775 106.045 15.8213 57.2145Z" stroke="#F2F2F2" stroke-width="20" stroke-miterlimit="10"/>
<path d="M36.7594 19.6775C51.9371 1.24055 78.4272 -6.56626 99.0811 6.47034C118.522 18.7301 127.22 42.7379 144.785 57.2524C163.203 72.4681 183.497 73.264 205.799 70.5543C225.032 68.2047 246.899 68.5837 254.497 90.9809C262.74 115.273 250.575 143.847 235.871 162.568C221.356 181.024 201.138 193.398 178.836 198.23C134.401 207.874 82.0464 191.749 50.3833 157.452C17.6592 122 3.69414 59.8863 36.7594 19.6775Z" fill="#F2F2F2"/>
<path d="M134.345 47.1339L202.465 105.666L201.195 132.156C201.195 135.32 197.387 180.096 193.767 180.096L130.157 137.518L72.8378 175.719C69.2187 175.719 62.2077 134.089 62.2077 130.943L57.9632 105.609L126.159 47.1339C128.566 45.4664 131.957 45.4664 134.345 47.1339Z" fill="#211F44"/>
<path d="M77.1391 190.65H183.649C187.514 190.65 190.641 187.524 190.641 183.658V75.083C190.641 71.2175 187.514 68.0909 183.649 68.0909H77.1202C73.2547 68.0909 70.1281 71.2175 70.1281 75.083V183.658C70.1281 187.524 73.2736 190.65 77.1391 190.65Z" fill="white"/>
<path d="M154.241 139.489H179.784C180.769 139.489 181.584 138.693 181.584 137.689V112.146C181.584 111.161 180.788 110.346 179.784 110.346H154.241C153.256 110.346 152.441 111.142 152.441 112.146V137.689C152.46 138.693 153.256 139.489 154.241 139.489ZM178.002 135.908H156.041V113.946H178.002V135.908Z" fill="#F2F2F2"/>
<path d="M76.0784 132.497H139.84C140.826 132.497 141.64 131.701 141.64 130.697C141.64 129.712 140.845 128.897 139.84 128.897H76.0784C75.0931 128.897 74.2783 129.693 74.2783 130.697C74.2973 131.701 75.0931 132.497 76.0784 132.497Z" fill="#197DFF"/>
<path d="M168.756 133.691C168.775 133.691 168.794 133.691 168.794 133.691C169.457 133.672 170.044 133.293 170.347 132.725L173.474 126.642C173.929 125.77 173.569 124.69 172.697 124.236C171.825 123.781 170.745 124.122 170.29 125.013L168.661 128.177L162.256 117.054C161.764 116.201 160.665 115.898 159.812 116.391C158.959 116.884 158.656 117.983 159.149 118.835L167.202 132.8C167.524 133.35 168.13 133.691 168.756 133.691Z" fill="#197DFF"/>
<path d="M107.381 120.901H140.276C141.034 120.901 141.64 120.294 141.64 119.536V118.721C141.64 117.964 141.034 117.357 140.276 117.357H107.381C106.623 117.357 106.017 117.964 106.017 118.721V119.536C106.017 120.294 106.623 120.901 107.381 120.901Z" fill="#F2F2F2"/>
<path d="M154.241 106.272H179.783C180.769 106.272 181.583 105.476 181.583 104.472V78.9295C181.583 77.9442 180.788 77.1294 179.783 77.1294H154.241C153.255 77.1294 152.441 77.9252 152.441 78.9295V104.472C152.46 105.476 153.255 106.272 154.241 106.272ZM178.002 102.691H156.041V80.7296H178.002V102.691Z" fill="#F2F2F2"/>
<path d="M91.3128 87.7217H140.067C140.939 87.7217 141.64 86.9258 141.64 85.9216C141.64 84.9362 140.939 84.1215 140.067 84.1215H91.3128C90.4412 84.1215 89.74 84.9173 89.74 85.9216C89.74 86.9258 90.4601 87.7217 91.3128 87.7217Z" fill="#F2F2F2"/>
<path d="M79.9057 99.2992H139.935C140.863 99.2992 141.621 98.5034 141.621 97.4991C141.621 96.4948 140.863 95.699 139.935 95.699H79.9057C78.9772 95.699 78.2193 96.4948 78.2193 97.4991C78.2193 98.5034 78.9772 99.2992 79.9057 99.2992Z" fill="#197DFF"/>
<path d="M168.755 100.493C168.774 100.493 168.793 100.493 168.793 100.493C169.457 100.474 170.044 100.095 170.347 99.5267L173.474 93.4442C173.928 92.5726 173.568 91.4925 172.697 91.0377C171.825 90.583 170.745 90.924 170.29 91.8146L168.661 94.9791L162.256 83.8562C161.763 83.0036 160.664 82.7004 159.812 83.193C158.959 83.6857 158.656 84.7847 159.148 85.6374L167.202 99.6025C167.524 100.152 168.13 100.493 168.755 100.493Z" fill="#197DFF"/>
<path d="M128.774 149.911L95.8982 117.566C87.2576 109.077 74.9411 104.226 61.9992 104.226C58.9675 104.226 56.5041 106.159 56.5041 108.527V152.601V194.989C56.5041 197.377 60.616 200.977 63.6477 200.977H82.331L128.774 155.292C130.328 153.757 130.328 151.446 128.774 149.911Z" fill="#0C4692"/>
<path d="M131.559 149.854L164.435 117.509C173.076 109.02 185.392 104.169 198.334 104.169C201.366 104.169 203.829 106.102 203.829 108.47V152.545V195.444C203.829 197.832 200.305 200.977 197.273 200.977L178.021 200.92L131.578 155.235C130.006 153.701 130.006 151.389 131.559 149.854Z" fill="#0C4692"/>
<path d="M56.5041 177.291V195.937C56.5041 198.722 59.4411 200.977 63.0603 200.977H197.254C200.873 200.977 203.81 198.722 203.81 195.937V177.291L134.231 134.695C133.094 133.994 131.749 133.634 130.366 133.596C128.85 133.558 127.315 133.918 126.045 134.695L56.5041 177.291Z" fill="#1A75EC"/>
<path d="M117.139 138.409L56.5041 169.371V177.291L118.219 139.489L117.139 138.409Z" fill="#211F44"/>
<path d="M143.194 138.409L203.829 169.371V177.291L142.095 139.489L143.194 138.409Z" fill="#211F44"/>
<path d="M164.795 35.2343L179.025 81.4308L181.299 88.8207L187.798 83.3446L204.776 69.0195L164.795 35.2343Z" fill="#197DFF"/>
<path d="M164.814 35.2343L214.213 63.7708L236.686 56.324L164.814 35.2343Z" fill="#0C4692"/>
<path d="M164.814 35.2343L204.776 69.0195L212.45 84.3868L214.213 63.7708L164.814 35.2343Z" fill="#211F44"/>
<path d="M149.882 191.522C149.958 191.522 150.034 191.503 150.11 191.484C151.758 190.991 153.407 190.423 155.036 189.816C155.453 189.665 155.662 189.191 155.51 188.774C155.358 188.357 154.885 188.149 154.468 188.301C152.895 188.907 151.266 189.456 149.655 189.93C149.219 190.063 148.992 190.518 149.105 190.934C149.2 191.294 149.522 191.522 149.882 191.522ZM161.005 187.107C161.119 187.107 161.251 187.088 161.365 187.012C162.9 186.235 164.435 185.383 165.913 184.492C166.292 184.265 166.424 183.772 166.197 183.374C165.97 182.995 165.477 182.862 165.079 183.09C163.639 183.961 162.142 184.776 160.645 185.534C160.247 185.743 160.077 186.216 160.285 186.614C160.418 186.936 160.702 187.107 161.005 187.107ZM171.18 180.797C171.351 180.797 171.522 180.74 171.673 180.626C173.056 179.584 174.421 178.485 175.709 177.367C175.842 177.254 175.937 177.083 175.974 176.913C176.732 177.178 177.509 177.405 178.286 177.595C178.722 177.708 179.158 177.424 179.271 177.007C179.385 176.571 179.101 176.136 178.684 176.022C177.055 175.624 175.482 175.056 174.042 174.336C173.644 174.127 173.151 174.298 172.962 174.696C172.753 175.093 172.924 175.586 173.322 175.776C173.701 175.965 174.08 176.155 174.478 176.306C173.265 177.348 172.014 178.372 170.726 179.319C170.366 179.584 170.29 180.096 170.555 180.456C170.688 180.683 170.934 180.797 171.18 180.797ZM185.259 178.277C185.278 178.277 185.278 178.277 185.297 178.277C187.002 178.201 188.765 177.955 190.527 177.538C190.963 177.443 191.228 177.007 191.133 176.571C191.039 176.136 190.603 175.87 190.167 175.965C188.499 176.344 186.851 176.59 185.221 176.666C184.767 176.685 184.425 177.064 184.444 177.519C184.482 177.936 184.842 178.277 185.259 178.277ZM196.818 175.359C196.932 175.359 197.045 175.34 197.14 175.283C198.675 174.601 200.229 173.786 201.782 172.858C202.161 172.63 202.294 172.137 202.067 171.74C201.839 171.361 201.347 171.228 200.949 171.455C199.471 172.346 197.955 173.123 196.477 173.786C196.06 173.976 195.889 174.449 196.06 174.847C196.211 175.169 196.515 175.359 196.818 175.359ZM180.086 172.82C180.314 172.82 180.522 172.725 180.674 172.554C181.886 171.247 182.966 169.845 183.933 168.424C184.179 168.045 184.084 167.552 183.705 167.306C183.326 167.059 182.834 167.154 182.587 167.533C181.678 168.897 180.636 170.224 179.499 171.474C179.196 171.796 179.215 172.308 179.556 172.611C179.707 172.744 179.897 172.82 180.086 172.82ZM168.187 171.796C168.376 171.796 168.585 171.721 168.736 171.588C169.058 171.285 169.077 170.773 168.774 170.451C168.262 169.902 167.808 169.314 167.372 168.708C166.879 167.988 166.443 167.211 166.083 166.396C165.894 165.979 165.42 165.809 165.022 165.979C164.605 166.169 164.435 166.642 164.605 167.04C165.003 167.95 165.496 168.822 166.045 169.617C166.5 170.281 167.031 170.925 167.58 171.531C167.751 171.721 167.978 171.796 168.187 171.796ZM207.012 169.106C207.183 169.106 207.372 169.049 207.505 168.935C208.869 167.874 210.196 166.718 211.446 165.524C211.768 165.221 211.787 164.71 211.484 164.388C211.181 164.065 210.669 164.046 210.347 164.35C209.115 165.506 207.827 166.623 206.519 167.647C206.159 167.931 206.103 168.424 206.387 168.784C206.538 168.992 206.785 169.106 207.012 169.106ZM186.264 162.644C186.605 162.644 186.927 162.417 187.04 162.076C187.533 160.503 187.779 158.949 187.779 157.49C187.779 157.225 187.779 156.979 187.76 156.713C187.741 156.259 187.344 155.936 186.908 155.955C186.453 155.974 186.131 156.372 186.15 156.808C186.169 157.035 186.169 157.263 186.169 157.49C186.169 158.779 185.941 160.162 185.506 161.602C185.373 162.038 185.619 162.474 186.036 162.606C186.112 162.625 186.188 162.644 186.264 162.644ZM163.961 160.882C164.416 160.882 164.776 160.522 164.776 160.067C164.776 158.4 165.06 156.789 165.591 155.311C165.742 154.894 165.534 154.421 165.098 154.269C164.681 154.117 164.207 154.326 164.056 154.762C163.449 156.429 163.146 158.21 163.146 160.067C163.146 160.522 163.525 160.882 163.961 160.882ZM215.596 160.749C215.823 160.749 216.051 160.655 216.221 160.465C217.32 159.139 218.381 157.737 219.367 156.315C219.613 155.955 219.537 155.444 219.158 155.197C218.798 154.951 218.287 155.027 218.04 155.406C217.074 156.789 216.051 158.153 214.971 159.442C214.686 159.783 214.724 160.295 215.084 160.579C215.217 160.693 215.406 160.749 215.596 160.749ZM184.426 151.351C184.615 151.351 184.804 151.275 184.975 151.143C185.297 150.839 185.335 150.328 185.032 150.006C183.838 148.679 182.246 147.656 180.427 147.031C180.01 146.879 179.537 147.106 179.404 147.542C179.253 147.959 179.48 148.433 179.916 148.566C181.47 149.096 182.834 149.968 183.857 151.086C183.971 151.256 184.198 151.351 184.426 151.351ZM222.247 150.82C222.531 150.82 222.815 150.669 222.967 150.385C223.782 148.85 224.521 147.277 225.203 145.685C225.373 145.268 225.184 144.795 224.767 144.624C224.35 144.454 223.876 144.643 223.706 145.06C223.062 146.614 222.323 148.149 221.527 149.627C221.318 150.025 221.47 150.517 221.868 150.726C221.982 150.782 222.114 150.82 222.247 150.82ZM168.755 150.347C168.926 150.347 169.096 150.29 169.248 150.176C170.46 149.248 171.957 148.566 173.568 148.224C174.004 148.13 174.288 147.694 174.193 147.258C174.099 146.822 173.663 146.538 173.227 146.633C171.389 147.031 169.665 147.808 168.262 148.888C167.902 149.153 167.846 149.665 168.111 150.025C168.262 150.233 168.509 150.347 168.755 150.347ZM226.719 139.717C227.079 139.717 227.401 139.489 227.496 139.129C227.969 137.462 228.367 135.756 228.689 134.051C228.765 133.615 228.481 133.198 228.045 133.103C227.609 133.028 227.192 133.312 227.098 133.748C226.794 135.396 226.397 137.045 225.942 138.674C225.828 139.11 226.074 139.546 226.491 139.679C226.567 139.717 226.643 139.717 226.719 139.717ZM228.727 127.931C229.144 127.931 229.504 127.589 229.542 127.173C229.599 126.074 229.637 124.975 229.637 123.876C229.637 123.25 229.618 122.606 229.599 121.962C229.58 121.507 229.201 121.166 228.765 121.185C228.31 121.204 227.969 121.583 227.988 122.019C228.007 122.625 228.026 123.25 228.026 123.876C228.026 124.937 227.988 126.017 227.931 127.078C227.912 127.533 228.253 127.912 228.689 127.931C228.689 127.931 228.708 127.931 228.727 127.931ZM228.14 115.974C228.178 115.974 228.216 115.974 228.272 115.955C228.708 115.879 229.011 115.481 228.955 115.027C228.689 113.321 228.348 111.597 227.931 109.929C227.818 109.494 227.382 109.228 226.946 109.342C226.51 109.456 226.245 109.892 226.359 110.327C226.757 111.957 227.098 113.624 227.344 115.292C227.401 115.69 227.761 115.974 228.14 115.974ZM225.127 104.396C225.222 104.396 225.316 104.378 225.411 104.34C225.828 104.188 226.036 103.714 225.885 103.297C225.279 101.668 224.596 100.057 223.838 98.5035C223.649 98.1055 223.156 97.935 222.758 98.1245C222.36 98.314 222.19 98.8066 222.379 99.2045C223.099 100.72 223.782 102.274 224.369 103.866C224.483 104.188 224.786 104.396 225.127 104.396ZM219.783 93.6905C219.935 93.6905 220.087 93.6526 220.219 93.5579C220.598 93.3116 220.712 92.8189 220.466 92.4399C219.537 90.9809 218.514 89.5408 217.453 88.1954C217.169 87.8354 216.676 87.7786 216.316 88.0628C215.956 88.347 215.899 88.8397 216.183 89.1997C217.206 90.5261 218.192 91.9094 219.101 93.3305C219.253 93.5579 219.499 93.6905 219.783 93.6905Z" fill="#197DFF"/>
<path d="M107.873 190.688C107.911 190.688 107.968 190.688 108.006 190.669C108.442 190.593 108.745 190.176 108.669 189.741C108.366 188.035 107.855 186.33 107.116 184.662C106.945 184.246 106.452 184.075 106.054 184.246C105.638 184.416 105.467 184.909 105.638 185.307C106.32 186.86 106.812 188.452 107.078 190.025C107.134 190.404 107.476 190.688 107.873 190.688ZM72.1175 184.208C72.1365 184.208 72.1744 184.208 72.1933 184.208C73.9934 184.056 75.8314 183.336 77.3473 182.218C77.7073 181.953 77.7831 181.441 77.5178 181.081C77.2526 180.721 76.741 180.645 76.3809 180.911C75.1114 181.858 73.5766 182.445 72.0607 182.578C71.6249 182.616 71.2838 183.014 71.3217 183.45C71.3596 183.886 71.7196 184.208 72.1175 184.208ZM66.0919 181.669C66.2624 181.669 66.433 181.612 66.5845 181.498C66.9446 181.233 67.0204 180.721 66.7551 180.361C65.9214 179.262 65.4855 177.841 65.4855 176.249C65.4855 176.174 65.4855 176.098 65.4855 176.022C65.5045 175.567 65.1445 175.207 64.6897 175.188C64.2539 175.169 63.8749 175.529 63.856 175.984C63.856 176.079 63.856 176.155 63.856 176.249C63.856 178.182 64.4055 179.944 65.4476 181.327C65.5992 181.555 65.8456 181.669 66.0919 181.669ZM102.833 179.944C103.004 179.944 103.174 179.887 103.326 179.774C103.686 179.49 103.743 178.997 103.458 178.637C102.416 177.291 101.223 175.984 99.9151 174.752C99.5929 174.449 99.0813 174.468 98.7781 174.79C98.475 175.112 98.4939 175.624 98.816 175.927C100.067 177.102 101.204 178.334 102.208 179.622C102.359 179.831 102.606 179.944 102.833 179.944ZM80.1896 176.628C80.5875 176.628 80.9475 176.325 80.9854 175.908C81.0233 175.548 81.0423 175.169 81.0423 174.79C81.0423 173.35 80.7391 171.91 80.1706 170.489C80.0001 170.072 79.5264 169.883 79.1096 170.053C78.6927 170.224 78.5032 170.697 78.6737 171.114C79.1664 172.346 79.4317 173.596 79.4317 174.809C79.4317 175.131 79.4127 175.435 79.3748 175.738C79.318 176.173 79.6401 176.59 80.0949 176.628C80.1328 176.628 80.1707 176.628 80.1896 176.628ZM93.9842 171.948C94.2494 171.948 94.5147 171.815 94.6663 171.569C94.9126 171.19 94.799 170.697 94.42 170.451C92.942 169.504 91.4071 168.651 89.8344 167.912C89.4365 167.722 88.9438 167.893 88.7543 168.31C88.5649 168.708 88.7354 169.2 89.1523 169.39C90.6492 170.091 92.1272 170.906 93.5483 171.815C93.681 171.91 93.8326 171.948 93.9842 171.948ZM67.0772 170.565C67.3046 170.565 67.532 170.47 67.6836 170.281C67.9678 169.958 68.271 169.655 68.5931 169.371C69.4647 168.632 70.4501 168.045 71.568 167.59C71.9849 167.419 72.1744 166.946 72.0038 166.529C71.8333 166.112 71.3596 165.922 70.9427 166.093C69.6732 166.604 68.5363 167.306 67.5509 168.139C67.172 168.461 66.793 168.821 66.4709 169.219C66.1867 169.56 66.2245 170.072 66.5656 170.356C66.6983 170.489 66.8877 170.565 67.0772 170.565ZM83.0319 167.173C83.3919 167.173 83.733 166.927 83.8277 166.548C83.9225 166.112 83.6572 165.676 83.2214 165.581C82.9182 165.505 82.615 165.449 82.3118 165.373C80.8528 165.07 79.3938 164.899 77.9726 164.88C77.5179 164.88 77.1578 165.221 77.1389 165.676C77.1389 166.131 77.48 166.491 77.9347 166.51C79.2611 166.529 80.6065 166.699 81.9897 166.965C82.2739 167.021 82.5582 167.078 82.8614 167.154C82.9182 167.173 82.975 167.173 83.0319 167.173ZM75.3009 166.244C75.5472 166.244 75.7936 166.131 75.9452 165.922C76.2104 165.562 76.1536 165.051 75.7936 164.785C75.1114 164.255 74.3913 163.819 73.6334 163.44C72.7997 163.023 71.8901 162.682 70.9427 162.398C70.5069 162.265 70.0711 162.512 69.9384 162.947C69.8058 163.383 70.0521 163.819 70.488 163.952C71.3596 164.198 72.1744 164.52 72.9134 164.899C73.5766 165.221 74.2019 165.619 74.8082 166.074C74.9598 166.188 75.1303 166.244 75.3009 166.244ZM63.9507 162.985C64.3865 162.985 64.7276 162.644 64.7655 162.227C64.7845 161.773 64.4434 161.394 64.0076 161.375C63.0601 161.318 62.0937 161.299 61.1842 161.261L60.7863 161.242C60.0284 161.223 59.441 161.185 58.8915 161.166C58.4367 161.147 58.0577 161.488 58.0388 161.924C58.0198 162.379 58.3609 162.758 58.7967 162.777C59.3652 162.815 59.9526 162.834 60.7295 162.853L61.1274 162.872C62.0369 162.91 63.0033 162.928 63.9317 162.985C63.9317 162.985 63.9318 162.985 63.9507 162.985ZM52.051 161.792C52.411 161.792 52.7332 161.564 52.8279 161.204C52.9416 160.768 52.6953 160.333 52.2784 160.2C50.952 159.821 49.7962 159.328 48.754 158.703C48.5077 158.551 48.2423 158.362 47.9581 158.134C47.617 157.85 47.1054 157.907 46.8212 158.248C46.537 158.589 46.5938 159.101 46.9349 159.385C47.276 159.669 47.5981 159.897 47.9202 160.086C49.095 160.787 50.3646 161.337 51.8236 161.754C51.8994 161.773 51.9752 161.792 52.051 161.792ZM43.1642 154.288C43.2968 154.288 43.4294 154.25 43.5621 154.174C43.96 153.947 44.0926 153.454 43.8653 153.075C43.0505 151.635 42.3873 150.1 41.9136 148.528C41.7809 148.092 41.3261 147.864 40.9093 147.978C40.4734 148.111 40.2461 148.565 40.3598 148.982C40.8714 150.669 41.5725 152.317 42.4441 153.852C42.6147 154.136 42.8799 154.288 43.1642 154.288ZM40.2082 142.805C40.644 142.805 41.004 142.445 41.023 142.009C41.0609 140.38 41.2882 138.731 41.7051 137.121C41.8188 136.685 41.5535 136.249 41.1177 136.135C40.6819 136.022 40.2461 136.287 40.1324 136.723C39.6776 138.466 39.4313 140.228 39.3934 141.99C39.3934 142.426 39.7534 142.805 40.2082 142.805Z" fill="#197DFF"/>
<path d="M39.4527 127.725C32.8299 121.102 32.8299 110.364 39.4527 103.741C46.0755 97.1185 56.8132 97.1185 63.4361 103.741C70.0589 110.364 70.0589 121.102 63.4361 127.725C56.8132 134.348 46.0755 134.348 39.4527 127.725Z" fill="#197DFF"/>
<path d="M44.9074 117.907V114.079C44.9074 110.479 47.8255 107.561 51.4257 107.561C55.0259 107.561 57.944 110.479 57.944 114.079V117.907C57.944 119.991 58.5125 120.787 59.5925 122.568H43.2399C44.3389 120.787 44.9074 119.991 44.9074 117.907Z" fill="white"/>
<path d="M51.4446 125.903C52.8089 125.903 53.908 124.804 53.908 123.44H48.9813C48.9813 124.785 50.0804 125.903 51.4446 125.903Z" fill="white"/>
<path d="M51.4445 105.552C52.5435 105.552 53.4341 106.443 53.4341 107.542C53.4341 108.641 52.5435 109.531 51.4445 109.531C50.3455 109.531 49.4549 108.641 49.4549 107.542C49.4359 106.443 50.3265 105.552 51.4445 105.552ZM51.4445 108.755C52.1077 108.755 52.6383 108.224 52.6383 107.561C52.6383 106.898 52.1077 106.367 51.4445 106.367C50.7813 106.367 50.2507 106.898 50.2507 107.561C50.2318 108.205 50.7813 108.755 51.4445 108.755Z" fill="white"/>
<path d="M51.4447 136.457C56.9777 136.457 62.1885 134.297 66.1109 130.375C70.0332 126.453 72.1934 121.242 72.1934 115.709C72.1934 110.176 70.0332 104.965 66.1109 101.043C62.1885 97.1202 56.9777 94.9601 51.4447 94.9601C45.9117 94.9601 40.7008 97.1202 36.7785 101.043C32.8562 104.965 30.696 110.176 30.696 115.709C30.696 121.242 32.8562 126.453 36.7785 130.375C40.6819 134.297 45.8928 136.457 51.4447 136.457ZM51.4447 96.6086C56.5608 96.6086 61.3548 98.5982 64.9739 102.217C68.5931 105.837 70.5827 110.631 70.5827 115.747C70.5827 120.863 68.5931 125.657 64.9739 129.276C61.3548 132.895 56.5608 134.885 51.4447 134.885C46.3286 134.885 41.5346 132.895 37.9154 129.276C34.2962 125.657 32.3067 120.863 32.3067 115.747C32.3067 110.631 34.2962 105.837 37.9154 102.217C41.5346 98.5982 46.3286 96.6086 51.4447 96.6086Z" fill="#197DFF"/>
<path d="M66.7173 64.8509C66.9257 64.8509 67.1342 64.775 67.2857 64.6045C67.6079 64.2824 67.6079 63.7708 67.2857 63.4676L61.9802 58.162C61.658 57.8399 61.1464 57.8399 60.8432 58.162C60.5211 58.4841 60.5211 58.9957 60.8432 59.2989L66.1488 64.6045C66.3004 64.775 66.5089 64.8509 66.7173 64.8509Z" fill="#0C4692"/>
<path d="M66.717 65.0592C66.9823 65.0592 67.2476 64.9455 67.437 64.756C67.6265 64.5666 67.7402 64.3202 67.7402 64.036C67.7402 63.7518 67.6265 63.5054 67.437 63.3159L62.1314 58.0104C61.7335 57.6124 61.0893 57.6124 60.7103 58.0104C60.5208 58.1998 60.4072 58.4462 60.4072 58.7304C60.4072 59.0146 60.5208 59.261 60.7103 59.4504L66.0159 64.756C66.1864 64.9455 66.4328 65.0592 66.717 65.0592ZM61.4114 58.143C61.563 58.143 61.7146 58.1998 61.8472 58.3135L67.1528 63.6191C67.2665 63.7328 67.3234 63.8844 67.3234 64.0549C67.3234 64.2255 67.2665 64.3771 67.1528 64.4908C67.0391 64.6044 66.8875 64.6613 66.717 64.6613C66.5464 64.6613 66.3949 64.6044 66.2812 64.4908L60.9756 59.1852C60.8619 59.0715 60.805 58.9199 60.805 58.7494C60.805 58.5788 60.8619 58.4272 60.9756 58.3135C61.0893 58.1998 61.2598 58.143 61.4114 58.143Z" fill="#0C4692"/>
<path d="M55.3668 72.4492C55.4047 72.4492 55.4426 72.4492 55.4805 72.4492L64.3105 71.1228C64.7463 71.0471 65.0495 70.6491 64.9927 70.1944C64.9169 69.7585 64.5189 69.4554 64.0642 69.5122L55.2342 70.8386C54.7983 70.9144 54.4952 71.3123 54.552 71.7671C54.6278 72.165 54.9689 72.4492 55.3668 72.4492Z" fill="#0C4692"/>
<path d="M55.367 72.6387C55.4239 72.6387 55.4618 72.6387 55.5186 72.6197L64.3486 71.2933C64.8981 71.2175 65.2771 70.687 65.2013 70.1375C65.1255 69.588 64.595 69.209 64.0455 69.2848L55.2154 70.6112C54.6659 70.687 54.2869 71.2175 54.3627 71.767C54.4385 72.2787 54.8744 72.6387 55.367 72.6387ZM64.1971 69.7017C64.5002 69.7017 64.7466 69.9101 64.8034 70.2133C64.8602 70.5354 64.6329 70.8575 64.2918 70.8954L55.4618 72.2218C55.4239 72.2218 55.4049 72.2218 55.367 72.2218C55.0638 72.2218 54.8175 71.9944 54.7607 71.7102C54.7038 71.3881 54.9312 71.0659 55.2723 71.028L64.1023 69.7017C64.1402 69.7017 64.1592 69.7017 64.1971 69.7017Z" fill="#0C4692"/>
<path d="M72.9702 62.3496C73.3681 62.3496 73.7092 62.0653 73.766 61.6674L75.0924 52.8374C75.1682 52.4016 74.8461 51.9847 74.4103 51.9089C73.9744 51.8331 73.5576 52.1553 73.4818 52.5911L72.1554 61.4211C72.0796 61.8569 72.4017 62.2738 72.8375 62.3496C72.8944 62.3306 72.9323 62.3496 72.9702 62.3496Z" fill="#0C4692"/>
<path d="M72.9701 62.5391C73.4628 62.5391 73.8986 62.1602 73.9744 61.6864L75.3008 52.8564C75.3387 52.5911 75.2818 52.3259 75.1113 52.0985C74.9597 51.89 74.7134 51.7385 74.4481 51.7006C74.1828 51.6627 73.9175 51.7195 73.6902 51.89C73.4817 52.0416 73.3302 52.288 73.2923 52.5532L71.9659 61.3833C71.928 61.6485 71.9848 61.9138 72.1554 62.1412C72.3069 62.3496 72.5533 62.5012 72.8186 62.5391C72.8754 62.5391 72.9322 62.5391 72.9701 62.5391ZM74.2965 52.0985C74.3344 52.0985 74.3534 52.0985 74.3913 52.0985C74.5428 52.1174 74.6944 52.2122 74.7892 52.3448C74.8839 52.4774 74.9218 52.629 74.9029 52.7996L73.5765 61.6296C73.5386 61.9328 73.2733 62.1412 72.9701 62.1412C72.9322 62.1412 72.9133 62.1412 72.8754 62.1412C72.7238 62.1222 72.5722 62.0275 72.4775 61.8949C72.3827 61.7622 72.3448 61.6106 72.3638 61.4401L73.6902 52.6101C73.7091 52.4585 73.8039 52.3069 73.9365 52.2122C74.0502 52.1364 74.1639 52.0985 74.2965 52.0985Z" fill="#0C4692"/>
</svg>
